<svg width="1470" height="2937" viewBox="0 0 1470 2937" fill="none" xmlns="http://www.w3.org/2000/svg">
<g id="Frame 2">
<rect id="image 17" y="16" width="1470" height="2921" fill="#D9CAFF"/>
<rect id="Rectangle 75" x="99" y="116" width="173" height="297" rx="20" fill="#6D6580"/>
<rect id="Rectangle 89" x="99" y="1823" width="173" height="318" rx="20" fill="#6D6580"/>
<path id="Rectangle 93" d="M99 2195.5C99 2184.45 107.954 2175.5 119 2175.5H252C263.046 2175.5 272 2184.45 272 2195.5V2473.5C272 2484.55 263.046 2493.5 252 2493.5H119C107.954 2493.5 99 2484.55 99 2473.5V2195.5Z" fill="#6D6580"/>
<rect id="Rectangle 90" x="99" y="1477" width="173" height="318" rx="20" fill="#6D6580"/>
<rect id="Rectangle 91" x="101" y="1136" width="173" height="318" rx="20" fill="#6D6580"/>
<rect id="Rectangle 88" x="101" y="795" width="173" height="318" rx="20" fill="#6D6580"/>
<rect id="Rectangle 87" x="99" y="447" width="173" height="318" rx="20" fill="#6D6580"/>
<rect id="Rectangle 94" x="320" y="116" width="173" height="297" rx="20" fill="#6D6580"/>
<rect id="Rectangle 95" x="320" y="447" width="173" height="318" rx="20" fill="#6D6580"/>
<rect id="Rectangle 96" x="322" y="795" width="173" height="318" rx="20" fill="#6D6580"/>
<rect id="Rectangle 97" x="322" y="1136" width="173" height="318" rx="20" fill="#6D6580"/>
<rect id="Rectangle 98" x="320" y="1477" width="173" height="318" rx="20" fill="#6D6580"/>
<rect id="Rectangle 99" x="320" y="1823" width="173" height="318" rx="20" fill="#6D6580"/>
<path id="Rectangle 100" d="M320 2195.5C320 2184.45 328.954 2175.5 340 2175.5H473C484.046 2175.5 493 2184.45 493 2195.5V2473.5C493 2484.55 484.046 2493.5 473 2493.5H340C328.954 2493.5 320 2484.55 320 2473.5V2195.5Z" fill="#6D6580"/>
<rect id="Rectangle 93_2" x="325" y="2555" width="173" height="318" rx="20" fill="#6D6580"/>
<rect id="Rectangle 101" x="544" y="116" width="173" height="297" rx="20" fill="#6D6580"/>
<rect id="Rectangle 102" x="544" y="1823" width="173" height="318" rx="20" fill="#6D6580"/>
<path id="Rectangle 103" d="M544 2195.5C544 2184.45 552.954 2175.5 564 2175.5H697C708.046 2175.5 717 2184.45 717 2195.5V2473.5C717 2484.55 708.046 2493.5 697 2493.5H564C552.954 2493.5 544 2484.55 544 2473.5V2195.5Z" fill="#6D6580"/>
<rect id="Rectangle 104" x="544" y="1477" width="173" height="318" rx="20" fill="#6D6580"/>
<rect id="Rectangle 105" x="546" y="1136" width="173" height="318" rx="20" fill="#6D6580"/>
<rect id="Rectangle 106" x="546" y="795" width="173" height="318" rx="20" fill="#6D6580"/>
<rect id="Rectangle 107" x="544" y="447" width="173" height="318" rx="20" fill="#6D6580"/>
<rect id="Rectangle 92" x="549" y="2555" width="173" height="318" rx="20" fill="#6D6580"/>
<rect id="Rectangle 108" x="768" y="116" width="173" height="297" rx="20" fill="#6D6580"/>
<rect id="Rectangle 109" x="768" y="1823" width="173" height="318" rx="20" fill="#6D6580"/>
<path id="Rectangle 110" d="M768 2195.5C768 2184.45 776.954 2175.5 788 2175.5H921C932.046 2175.5 941 2184.45 941 2195.5V2473.5C941 2484.55 932.046 2493.5 921 2493.5H788C776.954 2493.5 768 2484.55 768 2473.5V2195.5Z" fill="#6D6580"/>
<rect id="Rectangle 111" x="768" y="1477" width="173" height="318" rx="20" fill="#6D6580"/>
<rect id="Rectangle 112" x="770" y="1136" width="173" height="318" rx="20" fill="#6D6580"/>
<rect id="Rectangle 113" x="770" y="795" width="173" height="318" rx="20" fill="#6D6580"/>
<rect id="Rectangle 114" x="768" y="447" width="173" height="318" rx="20" fill="#6D6580"/>
<rect id="Rectangle 115" x="773" y="2555" width="173" height="318" rx="20" fill="#6D6580"/>
<rect id="Rectangle 116" x="1205" y="116" width="173" height="297" rx="20" fill="#6D6580"/>
<rect id="Rectangle 117" x="1205" y="1823" width="173" height="318" rx="20" fill="#6D6580"/>
<path id="Rectangle 118" d="M1205 2195.5C1205 2184.45 1213.95 2175.5 1225 2175.5H1358C1369.05 2175.5 1378 2184.45 1378 2195.5V2473.5C1378 2484.55 1369.05 2493.5 1358 2493.5H1225C1213.95 2493.5 1205 2484.55 1205 2473.5V2195.5Z" fill="#6D6580"/>
<rect id="Rectangle 119" x="1205" y="1477" width="173" height="318" rx="20" fill="#6D6580"/>
<rect id="Rectangle 120" x="1207" y="1136" width="173" height="318" rx="20" fill="#6D6580"/>
<rect id="Rectangle 121" x="1207" y="795" width="173" height="318" rx="20" fill="#6D6580"/>
<rect id="Rectangle 122" x="1205" y="447" width="173" height="318" rx="20" fill="#6D6580"/>
<rect id="Rectangle 123" x="1210" y="2555" width="173" height="318" rx="20" fill="#6D6580"/>
<rect id="Rectangle 116_2" x="989" y="116" width="173" height="297" rx="20" fill="#6D6580"/>
<rect id="Rectangle 117_2" x="989" y="1823" width="173" height="318" rx="20" fill="#6D6580"/>
<path id="Rectangle 118_2" d="M989 2195.5C989 2184.45 997.954 2175.5 1009 2175.5H1142C1153.05 2175.5 1162 2184.45 1162 2195.5V2473.5C1162 2484.55 1153.05 2493.5 1142 2493.5H1009C997.954 2493.5 989 2484.55 989 2473.5V2195.5Z" fill="#6D6580"/>
<rect id="Rectangle 119_2" x="989" y="1477" width="173" height="318" rx="20" fill="#6D6580"/>
<rect id="Rectangle 120_2" x="991" y="1136" width="173" height="318" rx="20" fill="#6D6580"/>
<rect id="Rectangle 121_2" x="991" y="795" width="173" height="318" rx="20" fill="#6D6580"/>
<rect id="Rectangle 122_2" x="989" y="447" width="173" height="318" rx="20" fill="#6D6580"/>
<rect id="Rectangle 123_2" x="994" y="2555" width="173" height="318" rx="20" fill="#6D6580"/>
<rect id="Rectangle 92_2" x="104" y="2555" width="173" height="318" rx="20" fill="#6D6580"/>
</g>
</svg>
